#N canvas 127 235 1268 702 10;
#X obj 43 349 v sample_duration;
#X obj 250 220 bng 30 250 50 0 empty empty choose_new_file 32 12 0
12 #fcfcfc #000000 #000000;
#X obj 230 300 openpanel;
#X obj 610 509 soundfiler;
#X floatatom 610 539 10 0 0 0 - - -, f 10;
#X obj 40 521 loadbang;
#X obj 40 546 samplerate~;
#X obj 40 571 v sr;
#X obj 610 563 expr int($f1 / sr) / sample_duration;
#X symbolatom 182 146 10 0 0 0 buffer_name: - -, f 10;
#X msg 182 114 set \$1;
#X obj 182 64 loadbang;
#X obj 182 88 symbol \$1;
#X msg 610 390 read -resize \$1;
#X obj 610 415 list append;
#X obj 673 360 list trim;
#X obj 610 440 list trim;
#X obj 677 305 inlet filename;
#X obj 677 329 symbol;
#X obj 110 220 bng 30 250 50 0 empty empty open_last_file 32 12 0 12
#fcfcfc #000000 #000000;
#X msg 230 350 set \$1;
#X msg 200 380 /home/neum/Documenti/sistemi_e_tecniche/2021_puredata/test.aif
;
#X obj 110 260 cnv 15 280 12 empty filename /home/neum/Documenti/sistemi_e_tecniche/2021_puredata/test.aif
2 6 0 7 #e0e0e0 #404040 0;
#X msg 160 480 label \$1;
#X obj 160 530 s filename;
#X obj 160 440 symbol;
#X obj 110 200 nbx 5 14 -1e+37 1e+37 0 0 empty empty sample_duration
56 4 0 12 #fcfcfc #000000 #000000 0 256 0;
#X connect 1 0 2 0;
#X connect 2 0 13 0;
#X connect 2 0 20 0;
#X connect 3 0 4 0;
#X connect 4 0 8 0;
#X connect 5 0 6 0;
#X connect 6 0 7 0;
#X connect 10 0 9 0;
#X connect 11 0 12 0;
#X connect 12 0 10 0;
#X connect 12 0 15 0;
#X connect 13 0 14 0;
#X connect 14 0 16 0;
#X connect 15 0 14 1;
#X connect 16 0 3 0;
#X connect 17 0 18 0;
#X connect 18 0 13 0;
#X connect 19 0 21 0;
#X connect 20 0 21 0;
#X connect 21 0 25 0;
#X connect 23 0 24 0;
#X connect 25 0 23 0;
#X connect 25 0 13 0;
#X coords 0 -1 1 1 300 140 2 101 140;
