#N canvas 198 221 983 641 10;
#X floatatom 105 167 5 0 0 1 sample_duration - -, f 5;
#X obj 53 269 v sample_duration;
#X obj 105 187 bng 30 250 50 0 empty empty choose_file 31 13 0 10 -262144
-1 -1;
#X obj 175 241 openpanel;
#X obj 175 420 soundfiler;
#X floatatom 175 449 10 0 0 0 - - -, f 10;
#X obj 40 331 loadbang;
#X obj 40 356 samplerate~;
#X obj 40 381 v sr;
#X obj 175 473 expr int($f1 / sr) / sample_duration;
#X symbolatom 178 146 10 0 0 0 buffer_name: - -, f 10;
#X msg 178 114 set \$1;
#X obj 178 64 loadbang;
#X obj 178 88 symbol \$1;
#X msg 175 301 read -resize \$1;
#X obj 175 326 list append;
#X obj 238 271 list trim;
#X obj 175 351 list trim;
#X obj 264 165 inlet filename;
#X obj 264 190 symbol;
#X connect 0 0 1 0;
#X connect 2 0 3 0;
#X connect 3 0 14 0;
#X connect 4 0 5 0;
#X connect 5 0 9 0;
#X connect 6 0 7 0;
#X connect 7 0 8 0;
#X connect 11 0 10 0;
#X connect 12 0 13 0;
#X connect 13 0 11 0;
#X connect 13 0 16 0;
#X connect 14 0 15 0;
#X connect 15 0 17 0;
#X connect 16 0 15 1;
#X connect 17 0 4 0;
#X connect 18 0 19 0;
#X connect 19 0 14 0;
#X coords 0 -1 1 1 143 81 2 101 140;
