#N canvas 744 205 915 645 12;
#X obj 30 101 openpanel;
#X obj 30 240 soundfiler;
#X floatatom 30 269 10 0 0 0 - - -, f 10;
#X msg 30 61 symbol ./Documenti/sistemi_e_tecniche/2021_puredata;
#X msg 30 200 read -resize -maxsize 2.7e+07 \$1 words;
#X obj 30 31 inlet;
#X obj 30 398 outlet;
#X obj 220 100 loadbang;
#X obj 200 330 samplerate~;
#X obj 30 160 pack s s;
#X obj 140 130 symbol \$1;
#X obj 30 369 expr int($f1 / $i2) / \$2;
#X connect 0 0 9 0;
#X connect 1 0 2 0;
#X connect 2 0 11 0;
#X connect 3 0 0 0;
#X connect 4 0 1 0;
#X connect 5 0 3 0;
#X connect 7 0 8 0;
#X connect 7 0 10 0;
#X connect 8 0 11 1;
#X connect 9 0 4 0;
#X connect 10 0 9 1;
#X connect 11 0 6 0;
#X coords 0 0 1 1 209 152 0;
