#N canvas 163 240 930 745 12;
#X obj 100 210 soundfiler;
#X floatatom 100 239 11 0 0 0 - - -, f 11;
#X obj 100 267 / 44100;
#X obj 100 296 /;
#X obj 100 40 inlet path+offset+buffer;
#X obj 220 330 outlet offset;
#X obj 100 330 outlet nr;
#X msg 100 180 read -resize -maxsize 2.7e+07 \$1 \$2;
#X obj 100 100 unpack s f s;
#X obj 100 129 pack s s, f 12;
#X connect 0 0 1 0;
#X connect 1 0 2 0;
#X connect 2 0 3 0;
#X connect 3 0 6 0;
#X connect 4 0 8 0;
#X connect 7 0 0 0;
#X connect 8 0 9 0;
#X connect 8 1 3 1;
#X connect 8 1 5 0;
#X connect 8 2 9 1;
#X connect 9 0 7 0;
