#N canvas 205 79 1358 830 12;
#X obj 200 250 route 0 1 2 3 4 5 6 7, f 46;
#X obj 200 200 pack 0 0;
#X obj 200 80 t b b;
#X obj 200 126 f 1;
#X obj 250 126 + 1;
#X obj 200 160 % 8;
#X obj 250 160 _xrandom 8;
#X obj 200 20 inlet;
#X obj 320 20 inlet nr_of_words;
#X text 700 500 -- overlaps word thread --;
#X text 700 540 inlet:;
#X text 720 560 0: bang;
#X text 720 580 1: number of words (int), f 25;
#X obj 200 580 outlet~;
#X text 700 610 args:;
#X text 720 630 buffer (string) \, required \, [buffer of sapled words]
;
#X text 720 650 duration (float) \, optional \, default: 2 \, [duration
of a sample in secs], f 71;
#X obj 200 300 _singleplay~ \$1 \$2;
#X obj 240 330 _singleplay~ \$1 \$2;
#X obj 270 360 _singleplay~ \$1 \$2;
#X obj 310 390 _singleplay~ \$1 \$2;
#X obj 340 420 _singleplay~ \$1 \$2;
#X obj 380 450 _singleplay~ \$1 \$2;
#X obj 410 480 _singleplay~ \$1 \$2;
#X obj 450 510 _singleplay~ \$1 \$2;
#X obj 370 100 print nr_of_words;
#X connect 0 0 17 0;
#X connect 0 1 18 0;
#X connect 0 2 19 0;
#X connect 0 3 20 0;
#X connect 0 4 21 0;
#X connect 0 5 22 0;
#X connect 0 6 23 0;
#X connect 0 7 24 0;
#X connect 1 0 0 0;
#X connect 2 0 3 0;
#X connect 2 1 6 0;
#X connect 3 0 4 0;
#X connect 3 0 5 0;
#X connect 4 0 3 1;
#X connect 5 0 1 0;
#X connect 6 0 1 1;
#X connect 7 0 2 0;
#X connect 8 0 6 1;
#X connect 8 0 25 0;
#X connect 17 0 13 0;
#X connect 18 0 13 0;
#X connect 19 0 13 0;
#X connect 20 0 13 0;
#X connect 21 0 13 0;
#X connect 22 0 13 0;
#X connect 23 0 13 0;
#X connect 24 0 13 0;
