#N canvas 123 73 475 686 12;
#X obj 100 40 inlet;
#X obj 100 600 outlet~;
#X obj 100 240 vs.click~;
#X obj 100 100 bng 50 250 50 0 empty empty empty 17 7 0 10 #fcfcfc
#000000 #000000;
#X obj 130 290 sig~ 1000;
#X obj 148 428 *~ 0.9;
#X obj 100 330 vcf~ 100;
#X obj 100 480 *~ 150;
#X obj 120 370 delwrite~ \$0-drop 5000;
#X obj 148 398 delread~ \$0-drop \$2;
#X obj 130 180 random 1000;
#X obj 130 209 + \$1;
#X connect 0 0 3 0;
#X connect 2 0 6 0;
#X connect 3 0 2 0;
#X connect 3 0 10 0;
#X connect 4 0 6 1;
#X connect 5 0 7 0;
#X connect 5 0 8 0;
#X connect 6 0 7 0;
#X connect 6 0 8 0;
#X connect 7 0 1 0;
#X connect 9 0 5 0;
#X connect 10 0 11 0;
#X connect 11 0 4 0;
