#N canvas 699 77 935 880 12;
#X obj 20 160 soundfiler;
#X obj 20 350 array define words;
#X obj 20 50 unpack s f;
#X floatatom 20 189 11 0 0 0 - - -, f 11;
#X msg 20 130 read -resize -maxsize 2.7e+07 \$1 words;
#X obj 20 217 / 44100;
#X floatatom 20 275 11 0 0 0 - - -, f 11;
#X obj 20 310 v nr_of_words;
#X obj 100 80 v words_offset;
#X obj 350 160 soundfiler;
#X obj 350 50 unpack s f;
#X floatatom 350 189 11 0 0 0 - - -, f 11;
#X obj 350 217 / 44100;
#X obj 350 246 / 2;
#X floatatom 350 275 11 0 0 0 - - -, f 11;
#X obj 350 350 array define phrases;
#X obj 20 246 /;
#X msg 20 20 samples/words.wav 2;
#X msg 350 20 samples/phrases.wav 7;
#X obj 430 80 v phrases_offset;
#X obj 350 310 v nr_of_phrases;
#X msg 350 130 read -resize -maxsize 2.7e+07 \$1 phrases;
#X connect 0 0 3 0;
#X connect 2 0 4 0;
#X connect 2 1 8 0;
#X connect 2 1 16 1;
#X connect 3 0 5 0;
#X connect 4 0 0 0;
#X connect 5 0 16 0;
#X connect 6 0 7 0;
#X connect 9 0 11 0;
#X connect 10 0 21 0;
#X connect 10 1 13 1;
#X connect 10 1 19 0;
#X connect 11 0 12 0;
#X connect 12 0 13 0;
#X connect 13 0 14 0;
#X connect 14 0 20 0;
#X connect 16 0 6 0;
#X connect 17 0 2 0;
#X connect 18 0 10 0;
#X connect 21 0 9 0;
