#N canvas 219 28 818 731 12;
#X obj 100 300 *;
#X obj 160 260 samplerate~;
#X obj 100 330 pack 0 0;
#X obj 250 220 bng 15 250 50 0 empty empty empty 17 7 0 10 #fcfcfc
#000000 #000000;
#X obj 350 100 loadbang;
#X obj 100 440 outlet~;
#X obj 100 100 inlet;
#X obj 100 400 tabplay~ \$1;
#X text 200 540 -- play single word sample --;
#X text 200 580 args:;
#X text 230 600 buffer (string) \, required \, [buffer of sapled words]
;
#X text 230 620 duration (float) \, optional \, default: 2 \, [duration
of a sample in secs], f 71;
#X obj 350 150 f \$2;
#X obj 350 280 expr if($f1 == 0 \, 2 \, $f1);
#X obj 100 209 *;
#X obj 160 300 *;
#X connect 0 0 2 0;
#X connect 1 0 0 1;
#X connect 1 0 15 0;
#X connect 2 0 7 0;
#X connect 3 0 1 0;
#X connect 4 0 1 0;
#X connect 4 0 12 0;
#X connect 6 0 14 0;
#X connect 7 0 5 0;
#X connect 12 0 13 0;
#X connect 13 0 14 1;
#X connect 13 0 15 1;
#X connect 14 0 0 0;
#X connect 15 0 2 1;
