#N canvas 310 388 192 291 10;
#X obj 91 165 !=;
#X obj 22 122 t f f f, f 8;
#X obj 22 229 route 1 0;
#X obj 114 86 t b;
#X obj 22 16 inlet;
#X obj 73 16 inlet;
#X obj 22 262 outlet;
#X obj 22 193 list prepend;
#X obj 22 87 random \$1;
#X obj 22 38 route bang seed;
#X msg 65 62 seed \$1;
#X text 121 260 f.bianchi;
#X connect 0 0 7 1;
#X connect 1 0 7 0;
#X connect 1 1 0 1;
#X connect 1 2 0 0;
#X connect 2 0 6 0;
#X connect 2 1 3 0;
#X connect 3 0 8 0;
#X connect 4 0 9 0;
#X connect 5 0 8 1;
#X connect 7 0 2 0;
#X connect 8 0 1 0;
#X connect 9 0 8 0;
#X connect 9 1 10 0;
#X connect 10 0 8 0;
