#N canvas 588 257 1218 714 12;
#X obj 510 660 dac~;
#X obj 500 210 sig~;
#X floatatom 500 189 5 0 0 0 - - -, f 5;
#X floatatom 550 330 5 0 0 0 - - -, f 5;
#X floatatom 550 621 5 0 0 0 - - -, f 5;
#X obj 430 70 vs.click~;
#X obj 500 30 bng 15 250 50 0 empty empty empty 17 7 0 10 #fcfcfc #000000
#000000;
#X obj 550 250 +~;
#X obj 570 209 *~ 500;
#X obj 440 530 vcf~ 5;
#X obj 550 530 vcf~ 5;
#X obj 610 310 +~;
#X obj 630 269 *~ 500;
#X obj 570 180 vs.rand3~ 0.25;
#X obj 630 240 vs.rand3~ 0.2;
#X obj 290 560 dac~;
#X obj 430 370 vcf~ 100;
#X floatatom 700 410 5 0 0 0 - - -, f 5;
#X obj 500 149 + 1000;
#X obj 500 120 random 600;
#X obj 430 580 *~ 50;
#X obj 640 590 *~ 50;
#X floatatom 550 370 5 0 0 0 - - -, f 5;
#X floatatom 690 460 5 0 0 0 - - -, f 5;
#X floatatom 650 370 5 0 0 0 - - -, f 5;
#X floatatom 310 390 5 0 0 0 - - -, f 5;
#X obj 310 480 *~ 150;
#X obj 440 440 rev3~ 100 99 5000 62;
#X obj 440 480 rev3~ 100 100 5000 62;
#X connect 1 0 7 0;
#X connect 1 0 11 0;
#X connect 1 0 16 1;
#X connect 2 0 1 0;
#X connect 3 0 16 2;
#X connect 4 0 20 1;
#X connect 4 0 21 1;
#X connect 5 0 16 0;
#X connect 6 0 5 0;
#X connect 6 0 19 0;
#X connect 7 0 9 1;
#X connect 8 0 7 1;
#X connect 9 1 20 0;
#X connect 10 1 21 0;
#X connect 11 0 10 1;
#X connect 12 0 11 1;
#X connect 13 0 8 0;
#X connect 14 0 12 0;
#X connect 16 0 26 0;
#X connect 16 0 27 0;
#X connect 16 0 27 1;
#X connect 17 0 28 3;
#X connect 18 0 2 0;
#X connect 19 0 18 0;
#X connect 20 0 0 0;
#X connect 21 0 0 1;
#X connect 22 0 27 2;
#X connect 22 0 28 2;
#X connect 23 0 28 5;
#X connect 24 0 27 3;
#X connect 25 0 26 1;
#X connect 26 0 15 0;
#X connect 26 0 15 1;
#X connect 27 0 28 0;
#X connect 27 1 28 1;
#X connect 28 0 9 0;
#X connect 28 1 10 0;
