#N canvas 0 23 1199 933 12;
#X obj 910 331 bng 15 250 50 0 empty empty empty 17 7 0 10 -262144
-1 -1;
#X obj 816 589 v total_duration;
#X obj 815 564 bng 15 250 50 0 empty empty empty 17 7 0 10 -262144
-1 -1;
#X floatatom 816 618 14 0 0 0 - - -, f 14;
#X floatatom 816 675 14 0 0 0 - - -, f 14;
#X obj 816 646 expr $f1 / 44100;
#X obj 400 609 dac~;
#X obj 400 500 bng 15 250 50 0 empty empty empty 17 7 0 10 -262144
-1 -1;
#X obj 810 331 loadbang;
#X obj 810 440 samplerate~;
#X obj 810 469 v sr;
#X obj 910 471 v word_duration;
#X obj 910 441 f 2;
#X obj 704 522 bng 15 250 50 0 empty empty empty 17 7 0 10 -262144
-1 -1;
#X obj 704 546 v sr;
#X obj 704 575 print;
#X floatatom 910 377 5 0 0 0 - - -, f 5;
#X obj 400 560 _overlap~ words 2;
#X floatatom 438 354 5 0 0 1 sample_duration - -, f 5;
#X obj 438 383 v sample_duration;
#X obj 98 179 symbol;
#X obj 45 302 _choose_file words test.aif;
#X msg 45 266 symbol test.aif;
#N canvas 0 0 450 300 (subpatch) 0;
#X array words 705616 float 4 black black;
#X coords 0 1 705615 -1 800 120 1;
#X restore 38 18 graph;
#X connect 0 0 9 0;
#X connect 1 0 3 0;
#X connect 2 0 1 0;
#X connect 3 0 5 0;
#X connect 5 0 4 0;
#X connect 7 0 17 0;
#X connect 8 0 9 0;
#X connect 8 0 12 0;
#X connect 9 0 10 0;
#X connect 12 0 11 0;
#X connect 13 0 14 0;
#X connect 14 0 15 0;
#X connect 16 0 12 0;
#X connect 17 0 6 0;
#X connect 17 0 6 1;
#X connect 18 0 19 0;
#X connect 22 0 21 0;
