#N canvas 368 61 1199 958 12;
#X obj 100 200 bng 50 250 50 0 empty empty empty 17 7 0 10 #fcfcfc
#000000 #000000;
#X obj 600 749 dac~;
#X obj 600 200 bng 100 250 50 0 empty empty empty 17 7 0 10 #fcfcfc
#000000 #000000;
#X floatatom 220 760 14 0 0 0 - - -, f 14;
#X obj 600 700 _overlap_word~ words 2;
#X obj 247 363 _choose_words words 2;
#X obj 298 200 array define words;
#X connect 0 0 5 0;
#X connect 2 0 4 0;
#X connect 3 0 4 1;
#X connect 4 0 1 0;
#X connect 4 0 1 1;
#X connect 5 0 3 0;
