#N canvas 156 53 1723 958 12;
#X obj 480 880 dac~;
#X obj 500 300 bng 40 250 50 0 empty empty empty 17 7 0 10 #fcfcfc
#000000 #000000;
#X obj 500 450 _overlap~ words 2;
#X obj 100 340 _openfile, f 19;
#X obj 100 379 v nr_of_words;
#X obj 230 380 v offset_words;
#X obj 100 420 array define words;
#X obj 660 450 _overlap~ words 2;
#X obj 830 450 _overlap~ words 2;
#X obj 660 300 bng 40 250 50 0 empty empty empty 17 7 0 10 #fcfcfc
#000000 #000000;
#X obj 830 300 bng 40 250 50 0 empty empty empty 17 7 0 10 #fcfcfc
#000000 #000000;
#X obj 665 59 tgl 30 0 empty empty empty 17 7 0 10 #fcfcfc #000000
#000000 1 1;
#X obj 660 160 pipe 1000;
#X obj 830 148 pipe 2000;
#X obj 178 26 netreceive -u -b 8000;
#X obj 178 51 oscparse;
#X obj 178 76 list trim;
#X obj 178 101 route trigger;
#X obj 178 126 route 24 25 26 27 28 29;
#X obj 178 178 t b;
#X obj 227 182 t b;
#X obj 317 186 t b;
#X obj 70 260 openpanel;
#X obj 70 210 bng 15 250 50 0 empty empty empty 17 7 0 10 #fcfcfc #000000
#000000;
#X obj 30 757 bng 15 250 50 0 empty empty empty 17 7 0 10 #fcfcfc #000000
#000000;
#X obj 30 781 openpanel;
#X obj 30 700 array define sx;
#X obj 30 720 array define dx;
#X msg 30 810 read -resize -maxsize 2.59308e+08 \$1 sx dx;
#X obj 30 839 soundfiler;
#X obj 30 868 v total_size;
#X obj 170 840 print;
#X msg 100 760 read -resize -maxsize 2.59308e+08 /home/neum/Scrivania/water_sounds/tex/totale.wav
sx dx;
#X obj 1000 370 bng 50 250 50 0 empty empty empty 17 7 0 10 #fcfcfc
#000000 #000000;
#N canvas 0 24 1920 1016 singleton 0;
#X obj 260 610 tabplay~ sx;
#X obj 370 609 tabplay~ dx;
#X obj 260 540 random;
#X obj 330 310 bng 15 250 50 0 empty empty empty 17 7 0 10 #fcfcfc
#000000 #000000;
#X obj 330 509 -;
#X obj 330 334 t b b;
#X msg 359 371 44100;
#X obj 359 400 * 120;
#X obj 260 671 *~;
#X obj 370 670 *~;
#X obj 330 280 loadbang;
#X msg 330 430 1.27322e+08;
#X obj 260 40 inlet;
#X obj 260 260 t b f;
#X msg 480 510 \$1 10000;
#X obj 480 560 line~;
#X obj 260 130 route 1 0;
#X msg 260 159 1;
#X msg 300 160 0;
#X obj 260 750 outlet~ sx;
#X obj 370 750 outlet~ dx;
#X connect 0 0 8 0;
#X connect 1 0 9 0;
#X connect 2 0 0 0;
#X connect 2 0 1 0;
#X connect 3 0 5 0;
#X connect 4 0 2 1;
#X connect 5 0 11 0;
#X connect 5 1 6 0;
#X connect 6 0 7 0;
#X connect 7 0 4 1;
#X connect 8 0 19 0;
#X connect 9 0 20 0;
#X connect 10 0 3 0;
#X connect 11 0 4 0;
#X connect 12 0 16 0;
#X connect 13 0 2 0;
#X connect 13 1 14 0;
#X connect 14 0 15 0;
#X connect 15 0 9 1;
#X connect 15 0 8 1;
#X connect 16 0 17 0;
#X connect 16 1 18 0;
#X connect 17 0 13 0;
#X connect 18 0 14 0;
#X restore 1000 540 pd singleton;
#N canvas 197 309 514 583 selecta 0;
#X obj 148 53 inlet;
#X obj 150 440 outlet;
#X obj 150 100 f;
#X obj 210 100 + 1;
#X obj 150 129 % 8;
#X obj 200 300 list append 0;
#X obj 150 260 list append 1;
#X obj 197 220 f;
#X obj 150 158 t f f b;
#X obj 150 360 poly 4 1;
#X obj 150 400 pack 0 0;
#X connect 0 0 2 0;
#X connect 2 0 3 0;
#X connect 2 0 4 0;
#X connect 3 0 2 1;
#X connect 4 0 8 0;
#X connect 5 0 9 0;
#X connect 6 0 9 0;
#X connect 7 0 5 0;
#X connect 8 0 7 1;
#X connect 8 1 6 0;
#X connect 8 2 7 0;
#X connect 9 0 10 0;
#X connect 9 2 10 1;
#X connect 10 0 1 0;
#X restore 1000 430 pd selecta;
#X obj 1000 459 route 1 2 3 4;
#N canvas 0 24 1920 1016 singleton 0;
#X obj 260 610 tabplay~ sx;
#X obj 370 609 tabplay~ dx;
#X obj 260 540 random;
#X obj 330 310 bng 15 250 50 0 empty empty empty 17 7 0 10 #fcfcfc
#000000 #000000;
#X obj 330 509 -;
#X obj 330 334 t b b;
#X msg 359 371 44100;
#X obj 359 400 * 120;
#X obj 260 671 *~;
#X obj 370 670 *~;
#X obj 330 280 loadbang;
#X msg 330 430 1.27322e+08;
#X obj 260 40 inlet;
#X obj 260 260 t b f;
#X msg 480 510 \$1 10000;
#X obj 480 560 line~;
#X obj 260 130 route 1 0;
#X msg 260 159 1;
#X msg 300 160 0;
#X obj 260 750 outlet~ sx;
#X obj 370 750 outlet~ dx;
#X connect 0 0 8 0;
#X connect 1 0 9 0;
#X connect 2 0 0 0;
#X connect 2 0 1 0;
#X connect 3 0 5 0;
#X connect 4 0 2 1;
#X connect 5 0 11 0;
#X connect 5 1 6 0;
#X connect 6 0 7 0;
#X connect 7 0 4 1;
#X connect 8 0 19 0;
#X connect 9 0 20 0;
#X connect 10 0 3 0;
#X connect 11 0 4 0;
#X connect 12 0 16 0;
#X connect 13 0 2 0;
#X connect 13 1 14 0;
#X connect 14 0 15 0;
#X connect 15 0 9 1;
#X connect 15 0 8 1;
#X connect 16 0 17 0;
#X connect 16 1 18 0;
#X connect 17 0 13 0;
#X connect 18 0 14 0;
#X restore 1030 570 pd singleton;
#N canvas 0 24 1920 1016 singleton 0;
#X obj 260 610 tabplay~ sx;
#X obj 370 609 tabplay~ dx;
#X obj 260 540 random;
#X obj 330 310 bng 15 250 50 0 empty empty empty 17 7 0 10 #fcfcfc
#000000 #000000;
#X obj 330 509 -;
#X obj 330 334 t b b;
#X msg 359 371 44100;
#X obj 359 400 * 120;
#X obj 260 671 *~;
#X obj 370 670 *~;
#X obj 330 280 loadbang;
#X msg 330 430 1.27322e+08;
#X obj 260 40 inlet;
#X obj 260 260 t b f;
#X msg 480 510 \$1 10000;
#X obj 480 560 line~;
#X obj 260 130 route 1 0;
#X msg 260 159 1;
#X msg 300 160 0;
#X obj 260 750 outlet~ sx;
#X obj 370 750 outlet~ dx;
#X connect 0 0 8 0;
#X connect 1 0 9 0;
#X connect 2 0 0 0;
#X connect 2 0 1 0;
#X connect 3 0 5 0;
#X connect 4 0 2 1;
#X connect 5 0 11 0;
#X connect 5 1 6 0;
#X connect 6 0 7 0;
#X connect 7 0 4 1;
#X connect 8 0 19 0;
#X connect 9 0 20 0;
#X connect 10 0 3 0;
#X connect 11 0 4 0;
#X connect 12 0 16 0;
#X connect 13 0 2 0;
#X connect 13 1 14 0;
#X connect 14 0 15 0;
#X connect 15 0 9 1;
#X connect 15 0 8 1;
#X connect 16 0 17 0;
#X connect 16 1 18 0;
#X connect 17 0 13 0;
#X connect 18 0 14 0;
#X restore 1100 540 pd singleton;
#N canvas 0 24 1920 1016 singleton 0;
#X obj 260 610 tabplay~ sx;
#X obj 370 609 tabplay~ dx;
#X obj 260 540 random;
#X obj 330 310 bng 15 250 50 0 empty empty empty 17 7 0 10 #fcfcfc
#000000 #000000;
#X obj 330 509 -;
#X obj 330 334 t b b;
#X msg 359 371 44100;
#X obj 359 400 * 120;
#X obj 260 671 *~;
#X obj 370 670 *~;
#X obj 330 280 loadbang;
#X msg 330 430 1.27322e+08;
#X obj 260 40 inlet;
#X obj 260 260 t b f;
#X msg 480 510 \$1 10000;
#X obj 480 560 line~;
#X obj 260 130 route 1 0;
#X msg 260 159 1;
#X msg 300 160 0;
#X obj 260 750 outlet~ sx;
#X obj 370 750 outlet~ dx;
#X connect 0 0 8 0;
#X connect 1 0 9 0;
#X connect 2 0 0 0;
#X connect 2 0 1 0;
#X connect 3 0 5 0;
#X connect 4 0 2 1;
#X connect 5 0 11 0;
#X connect 5 1 6 0;
#X connect 6 0 7 0;
#X connect 7 0 4 1;
#X connect 8 0 19 0;
#X connect 9 0 20 0;
#X connect 10 0 3 0;
#X connect 11 0 4 0;
#X connect 12 0 16 0;
#X connect 13 0 2 0;
#X connect 13 1 14 0;
#X connect 14 0 15 0;
#X connect 15 0 9 1;
#X connect 15 0 8 1;
#X connect 16 0 17 0;
#X connect 16 1 18 0;
#X connect 17 0 13 0;
#X connect 18 0 14 0;
#X restore 1130 570 pd singleton;
#X obj 1000 700 vs.sgain~;
#X obj 1000 816 dac~;
#X msg 100 300 \$1 2 words;
#X obj 660 200 metro 5400;
#X obj 830 200 metro 7200;
#X obj 500 200 metro 8215;
#X obj 500 570 vs.pan~;
#X obj 580 650 vs.sgain~;
#X obj 660 570 vs.pan~;
#X obj 830 570 vs.pan~;
#X floatatom 550 500 0 0 1 0 - - -;
#X floatatom 710 500 0 0 1 0 - - -;
#X floatatom 880 500 0 0 1 0 - - -;
#X floatatom 680 730 0 0 120 0 - - -;
#X text 721 715 level \, dB;
#X floatatom 715 737 0 0 100 0 - - -;
#X text 756 737 liveness \, 0-100;
#X floatatom 750 761 4 0 5000 0 - - -, f 4;
#X floatatom 785 784 0 0 100 0 - - -;
#X text 798 759 crossover frequency \, Hz.;
#X text 821 786 HF damping \, percent;
#X obj 620 860 dac~;
#X obj 1100 430 dac~;
#X obj 610 810 rev3~ 100 75 3000 20;
#X obj 1260 470 _rainy~ 400 1200;
#X obj 1280 510 _rainy~ 600 2500;
#X obj 1260 310 bng 50 250 50 0 empty empty empty 17 7 0 10 #fcfcfc
#000000 #000000;
#X obj 1260 369 f;
#X obj 1310 370 + 1;
#X obj 1260 398 % 4;
#X obj 1260 427 route 0 1 2 3;
#X obj 1380 470 _rainy~ 500 1200;
#X obj 1250 910 dac~;
#X obj 1400 680 rev3~ 100 50 3000 20;
#X obj 1400 510 _rainy~ 2000 1000;
#X obj 1250 790 vs.sgain~;
#X connect 1 0 2 0;
#X connect 1 0 33 0;
#X connect 2 0 46 0;
#X connect 3 0 4 0;
#X connect 3 0 2 1;
#X connect 3 0 8 1;
#X connect 3 0 7 1;
#X connect 3 1 5 0;
#X connect 7 0 48 0;
#X connect 8 0 49 0;
#X connect 9 0 7 0;
#X connect 9 0 33 0;
#X connect 10 0 8 0;
#X connect 10 0 33 0;
#X connect 11 0 12 0;
#X connect 11 0 13 0;
#X connect 11 0 45 0;
#X connect 12 0 43 0;
#X connect 13 0 44 0;
#X connect 14 0 15 0;
#X connect 15 0 16 0;
#X connect 16 0 17 0;
#X connect 17 0 18 0;
#X connect 18 1 20 0;
#X connect 18 2 21 0;
#X connect 18 3 19 0;
#X connect 19 0 1 0;
#X connect 20 0 9 0;
#X connect 21 0 10 0;
#X connect 22 0 42 0;
#X connect 23 0 22 0;
#X connect 24 0 25 0;
#X connect 25 0 28 0;
#X connect 28 0 29 0;
#X connect 28 0 31 0;
#X connect 29 0 30 0;
#X connect 32 0 29 0;
#X connect 33 0 35 0;
#X connect 34 0 40 0;
#X connect 34 1 40 1;
#X connect 35 0 36 0;
#X connect 36 0 34 0;
#X connect 36 1 37 0;
#X connect 36 2 38 0;
#X connect 36 3 39 0;
#X connect 37 0 40 0;
#X connect 37 1 40 1;
#X connect 38 0 40 0;
#X connect 38 1 40 1;
#X connect 39 0 40 0;
#X connect 39 1 40 1;
#X connect 40 0 41 0;
#X connect 40 1 41 1;
#X connect 42 0 3 0;
#X connect 43 0 9 0;
#X connect 44 0 10 0;
#X connect 45 0 1 0;
#X connect 46 0 47 0;
#X connect 46 1 47 1;
#X connect 47 0 0 0;
#X connect 47 0 63 0;
#X connect 47 1 0 1;
#X connect 47 1 63 1;
#X connect 48 0 47 0;
#X connect 48 1 47 1;
#X connect 49 0 47 0;
#X connect 49 1 47 1;
#X connect 50 0 46 1;
#X connect 51 0 48 1;
#X connect 52 0 49 1;
#X connect 53 0 63 2;
#X connect 55 0 63 3;
#X connect 57 0 63 4;
#X connect 58 0 63 5;
#X connect 63 0 61 0;
#X connect 63 1 61 1;
#X connect 64 0 73 0;
#X connect 64 0 73 1;
#X connect 65 0 73 0;
#X connect 65 0 73 1;
#X connect 66 0 67 0;
#X connect 67 0 69 0;
#X connect 68 0 67 1;
#X connect 69 0 68 0;
#X connect 69 0 70 0;
#X connect 70 0 64 0;
#X connect 70 1 65 0;
#X connect 70 2 71 0;
#X connect 70 3 74 0;
#X connect 71 0 73 0;
#X connect 71 0 73 1;
#X connect 73 0 75 0;
#X connect 73 1 75 1;
#X connect 74 0 73 0;
#X connect 74 0 73 1;
#X connect 75 0 72 0;
#X connect 75 1 72 1;
