#N canvas 127 86 774 958 12;
#X obj 600 749 dac~;
#X obj 600 200 bng 100 250 50 0 empty empty empty 17 7 0 10 #fcfcfc
#000000 #000000;
#X obj 600 700 _overlap~ words 2;
#X obj 100 340 _openfile, f 19;
#X msg 100 300 samples/words.wav 2 words;
#X obj 100 379 v nr_of_words;
#X obj 230 380 v offset_words;
#X obj 100 420 array define words;
#X obj 100 540 _openfile, f 19;
#X msg 100 500 samples/phrases.wav 7 phrases;
#X obj 100 579 v nr_of_phrases;
#X obj 230 580 v offset_phrases;
#X obj 100 620 array define phrases;
#X connect 1 0 2 0;
#X connect 2 0 0 0;
#X connect 2 0 0 1;
#X connect 3 0 5 0;
#X connect 3 1 6 0;
#X connect 4 0 3 0;
#X connect 8 0 10 0;
#X connect 8 1 11 0;
#X connect 9 0 8 0;
