#N canvas 887 226 625 499 12;
#X msg 180 88 connect localhost 8000;
#X msg 98 62 send ciao ciao;
#X obj 158 137 netsend -u;
#X obj 374 191 metro 100;
#X obj 372 152 tgl 15 0 empty empty empty 17 7 0 10 -262144 -1 -1 0
1;
#X obj 374 216 f;
#X obj 449 252 + 1;
#X obj 374 241 % 10;
#X msg 165 300 send \$1;
#X obj 377 407 netsend -u;
#X msg 399 358 connect localhost 9000;
#X obj 374 266 + 1000;
#X msg 374 291 send \$1;
#X connect 0 0 2 0;
#X connect 1 0 2 0;
#X connect 3 0 5 0;
#X connect 4 0 3 0;
#X connect 5 0 6 0;
#X connect 5 0 7 0;
#X connect 6 0 5 1;
#X connect 7 0 8 0;
#X connect 7 0 11 0;
#X connect 8 0 2 0;
#X connect 10 0 9 0;
#X connect 11 0 12 0;
#X connect 12 0 9 0;
