#N canvas 0 24 1680 967 12;
#X obj 215 851 dac~;
#X obj 270 709 neum-scope~;
#X obj 132 118 legacy_mousemotion;
#X floatatom 132 147 5 0 0 0 - - -, f 5;
#X floatatom 131 235 5 0 0 0 - - -, f 5;
#X obj 132 204 int;
#X obj 132 175 neum-scale 0 1679 0 36;
#X obj 131 318 + 48;
#X obj 129 396 mtof;
#X obj 130 456 line~;
#X msg 129 426 \$1 120;
#X floatatom 356 159 5 0 0 0 - - -, f 5;
#X obj 356 194 neum-scale 0 960 -24 0;
#X floatatom 356 223 5 0 0 0 - - -, f 5;
#X obj 356 251 neum-dbtoa;
#X floatatom 356 280 5 0 0 0 - - -, f 5;
#X obj 217 665 *~;
#X obj 356 341 line~;
#X msg 356 312 \$1 120;
#X obj 359 490 line~;
#X obj 359 519 *~;
#X obj 360 428 t b;
#X obj 131 263 change;
#X msg 360 454 0 \, 1 600;
#X obj 217 720 *~ 0.5;
#X obj 130 536 neum-triangle~;
#X floatatom 463 675 5 0 0 0 - - -, f 5;
#X obj 130 485 +~;
#X obj 438 487 *~ 4;
#X obj 438 458 osc~ 6.5;
#X connect 2 0 3 0;
#X connect 2 1 11 0;
#X connect 3 0 6 0;
#X connect 4 0 22 0;
#X connect 5 0 4 0;
#X connect 6 0 5 0;
#X connect 7 0 8 0;
#X connect 8 0 10 0;
#X connect 9 0 27 0;
#X connect 10 0 9 0;
#X connect 11 0 12 0;
#X connect 12 0 13 0;
#X connect 13 0 14 0;
#X connect 14 0 15 0;
#X connect 15 0 18 0;
#X connect 16 0 1 0;
#X connect 16 0 24 0;
#X connect 17 0 16 1;
#X connect 18 0 17 0;
#X connect 19 0 20 0;
#X connect 20 0 27 1;
#X connect 21 0 23 0;
#X connect 22 0 7 0;
#X connect 22 0 21 0;
#X connect 23 0 19 0;
#X connect 24 0 0 0;
#X connect 24 0 0 1;
#X connect 25 0 16 0;
#X connect 26 0 1 1;
#X connect 27 0 25 0;
#X connect 28 0 20 1;
#X connect 29 0 28 0;
