#N canvas 596 73 1324 927 12;
#X obj 40 87 bng 15 250 50 0 empty empty empty 17 7 0 10 #fcfcfc #000000
#000000;
#X obj 40 111 openpanel;
#X obj 40 30 array define sx;
#X obj 40 50 array define dx;
#X msg 40 140 read -resize -maxsize 2.59308e+08 \$1 sx dx;
#X obj 40 169 soundfiler;
#X obj 40 198 v total_size;
#X obj 600 100 bng 100 250 50 0 empty empty empty 17 7 0 10 #fcfcfc
#000000 #000000;
#N canvas 0 24 1920 1016 singleton 0;
#X obj 260 610 tabplay~ sx;
#X obj 370 609 tabplay~ dx;
#X obj 260 540 random;
#X obj 330 310 bng 15 250 50 0 empty empty empty 17 7 0 10 #fcfcfc
#000000 #000000;
#X obj 330 509 -;
#X obj 330 334 t b b;
#X msg 359 371 44100;
#X obj 359 400 * 120;
#X obj 260 671 *~;
#X obj 370 670 *~;
#X obj 330 280 loadbang;
#X msg 330 430 1.27322e+08;
#X obj 260 40 inlet;
#X obj 260 260 t b f;
#X msg 480 510 \$1 10000;
#X obj 480 560 line~;
#X obj 260 130 route 1 0;
#X msg 260 159 1;
#X msg 300 160 0;
#X obj 260 750 outlet~ sx;
#X obj 370 750 outlet~ dx;
#X connect 0 0 8 0;
#X connect 1 0 9 0;
#X connect 2 0 0 0;
#X connect 2 0 1 0;
#X connect 3 0 5 0;
#X connect 4 0 2 1;
#X connect 5 0 11 0;
#X connect 5 1 6 0;
#X connect 6 0 7 0;
#X connect 7 0 4 1;
#X connect 8 0 19 0;
#X connect 9 0 20 0;
#X connect 10 0 3 0;
#X connect 11 0 4 0;
#X connect 12 0 16 0;
#X connect 13 0 2 0;
#X connect 13 1 14 0;
#X connect 14 0 15 0;
#X connect 15 0 9 1;
#X connect 15 0 8 1;
#X connect 16 0 17 0;
#X connect 16 1 18 0;
#X connect 17 0 13 0;
#X connect 18 0 14 0;
#X restore 600 400 pd singleton;
#N canvas 197 309 514 583 selecta 0;
#X obj 148 53 inlet;
#X obj 150 440 outlet;
#X obj 150 100 f;
#X obj 210 100 + 1;
#X obj 150 129 % 8;
#X obj 200 300 list append 0;
#X obj 150 260 list append 1;
#X obj 197 220 f;
#X obj 150 158 t f f b;
#X obj 150 360 poly 4 1;
#X obj 150 400 pack 0 0;
#X connect 0 0 2 0;
#X connect 2 0 3 0;
#X connect 2 0 4 0;
#X connect 3 0 2 1;
#X connect 4 0 8 0;
#X connect 5 0 9 0;
#X connect 6 0 9 0;
#X connect 7 0 5 0;
#X connect 8 0 7 1;
#X connect 8 1 6 0;
#X connect 8 2 7 0;
#X connect 9 0 10 0;
#X connect 9 2 10 1;
#X connect 10 0 1 0;
#X restore 600 230 pd selecta;
#X obj 600 259 route 1 2 3 4;
#X obj 180 170 print;
#X msg 110 90 read -resize -maxsize 2.59308e+08 /home/neum/Scrivania/water_sounds/tex/totale.wav
sx dx;
#N canvas 0 24 1920 1016 singleton 0;
#X obj 260 610 tabplay~ sx;
#X obj 370 609 tabplay~ dx;
#X obj 260 540 random;
#X obj 330 310 bng 15 250 50 0 empty empty empty 17 7 0 10 #fcfcfc
#000000 #000000;
#X obj 330 509 -;
#X obj 330 334 t b b;
#X msg 359 371 44100;
#X obj 359 400 * 120;
#X obj 260 671 *~;
#X obj 370 670 *~;
#X obj 330 280 loadbang;
#X msg 330 430 1.27322e+08;
#X obj 260 40 inlet;
#X obj 260 260 t b f;
#X msg 480 510 \$1 10000;
#X obj 480 560 line~;
#X obj 260 130 route 1 0;
#X msg 260 159 1;
#X msg 300 160 0;
#X obj 260 750 outlet~ sx;
#X obj 370 750 outlet~ dx;
#X connect 0 0 8 0;
#X connect 1 0 9 0;
#X connect 2 0 0 0;
#X connect 2 0 1 0;
#X connect 3 0 5 0;
#X connect 4 0 2 1;
#X connect 5 0 11 0;
#X connect 5 1 6 0;
#X connect 6 0 7 0;
#X connect 7 0 4 1;
#X connect 8 0 19 0;
#X connect 9 0 20 0;
#X connect 10 0 3 0;
#X connect 11 0 4 0;
#X connect 12 0 16 0;
#X connect 13 0 2 0;
#X connect 13 1 14 0;
#X connect 14 0 15 0;
#X connect 15 0 9 1;
#X connect 15 0 8 1;
#X connect 16 0 17 0;
#X connect 16 1 18 0;
#X connect 17 0 13 0;
#X connect 18 0 14 0;
#X restore 700 400 pd singleton;
#N canvas 0 24 1920 1016 singleton 0;
#X obj 260 610 tabplay~ sx;
#X obj 370 609 tabplay~ dx;
#X obj 260 540 random;
#X obj 330 310 bng 15 250 50 0 empty empty empty 17 7 0 10 #fcfcfc
#000000 #000000;
#X obj 330 509 -;
#X obj 330 334 t b b;
#X msg 359 371 44100;
#X obj 359 400 * 120;
#X obj 260 671 *~;
#X obj 370 670 *~;
#X obj 330 280 loadbang;
#X msg 330 430 1.27322e+08;
#X obj 260 40 inlet;
#X obj 260 260 t b f;
#X msg 480 510 \$1 10000;
#X obj 480 560 line~;
#X obj 260 130 route 1 0;
#X msg 260 159 1;
#X msg 300 160 0;
#X obj 260 750 outlet~ sx;
#X obj 370 750 outlet~ dx;
#X connect 0 0 8 0;
#X connect 1 0 9 0;
#X connect 2 0 0 0;
#X connect 2 0 1 0;
#X connect 3 0 5 0;
#X connect 4 0 2 1;
#X connect 5 0 11 0;
#X connect 5 1 6 0;
#X connect 6 0 7 0;
#X connect 7 0 4 1;
#X connect 8 0 19 0;
#X connect 9 0 20 0;
#X connect 10 0 3 0;
#X connect 11 0 4 0;
#X connect 12 0 16 0;
#X connect 13 0 2 0;
#X connect 13 1 14 0;
#X connect 14 0 15 0;
#X connect 15 0 9 1;
#X connect 15 0 8 1;
#X connect 16 0 17 0;
#X connect 16 1 18 0;
#X connect 17 0 13 0;
#X connect 18 0 14 0;
#X restore 800 400 pd singleton;
#N canvas 0 24 1920 1016 singleton 0;
#X obj 260 610 tabplay~ sx;
#X obj 370 609 tabplay~ dx;
#X obj 260 540 random;
#X obj 330 310 bng 15 250 50 0 empty empty empty 17 7 0 10 #fcfcfc
#000000 #000000;
#X obj 330 509 -;
#X obj 330 334 t b b;
#X msg 359 371 44100;
#X obj 359 400 * 120;
#X obj 260 671 *~;
#X obj 370 670 *~;
#X obj 330 280 loadbang;
#X msg 330 430 1.27322e+08;
#X obj 260 40 inlet;
#X obj 260 260 t b f;
#X msg 480 510 \$1 10000;
#X obj 480 560 line~;
#X obj 260 130 route 1 0;
#X msg 260 159 1;
#X msg 300 160 0;
#X obj 260 750 outlet~ sx;
#X obj 370 750 outlet~ dx;
#X connect 0 0 8 0;
#X connect 1 0 9 0;
#X connect 2 0 0 0;
#X connect 2 0 1 0;
#X connect 3 0 5 0;
#X connect 4 0 2 1;
#X connect 5 0 11 0;
#X connect 5 1 6 0;
#X connect 6 0 7 0;
#X connect 7 0 4 1;
#X connect 8 0 19 0;
#X connect 9 0 20 0;
#X connect 10 0 3 0;
#X connect 11 0 4 0;
#X connect 12 0 16 0;
#X connect 13 0 2 0;
#X connect 13 1 14 0;
#X connect 14 0 15 0;
#X connect 15 0 9 1;
#X connect 15 0 8 1;
#X connect 16 0 17 0;
#X connect 16 1 18 0;
#X connect 17 0 13 0;
#X connect 18 0 14 0;
#X restore 900 400 pd singleton;
#X obj 600 490 dac~;
#X connect 0 0 1 0;
#X connect 1 0 4 0;
#X connect 4 0 5 0;
#X connect 4 0 11 0;
#X connect 5 0 6 0;
#X connect 7 0 9 0;
#X connect 8 0 16 0;
#X connect 8 1 16 1;
#X connect 9 0 10 0;
#X connect 10 0 8 0;
#X connect 10 1 13 0;
#X connect 10 2 14 0;
#X connect 10 3 15 0;
#X connect 12 0 5 0;
#X connect 13 0 16 0;
#X connect 13 1 16 1;
#X connect 14 0 16 0;
#X connect 14 1 16 1;
#X connect 15 0 16 0;
#X connect 15 1 16 1;
