#N canvas 194 39 1601 902 12;
#X obj 40 87 bng 15 250 50 0 empty empty empty 17 7 0 10 #fcfcfc #000000
#000000;
#X obj 40 111 openpanel;
#X obj 40 30 array define sx;
#X obj 40 50 array define dx;
#X msg 40 140 read -resize -maxsize 2.59308e+08 \$1 sx dx;
#X obj 40 169 soundfiler;
#X obj 400 580 tabplay~ sx;
#X obj 510 579 tabplay~ dx;
#X obj 400 510 random;
#X obj 40 198 v total_size;
#X obj 550 300 v total_size;
#X obj 550 130 bng 15 250 50 0 empty empty empty 17 7 0 10 #fcfcfc
#000000 #000000;
#X obj 550 329 -;
#X obj 550 154 t b b;
#X msg 579 191 44100;
#X obj 579 220 * 120;
#X obj 400 300 metro 5000;
#X obj 400 240 tgl 31 0 empty empty empty 17 7 0 10 #fcfcfc #000000
#000000 0 1;
#X obj 20 680 array define envelope 4096;
#X obj 20 600 vs.env.ar envelope;
#X obj 620 580 tabread4~ envelope;
#X obj 620 530 vline~;
#X obj 400 641 *~;
#X obj 510 640 *~;
#X obj 770 580 tabplay~ sx;
#X obj 880 579 tabplay~ dx;
#X obj 770 510 random;
#X obj 990 580 tabread4~ envelope;
#X obj 990 530 vline~;
#X obj 770 641 *~;
#X obj 880 640 *~;
#X obj 770 300 delay 2500;
#X floatatom 470 190 5 0 0 0 - - -, f 5;
#X obj 840 220 / 2;
#X obj 550 80 loadbang;
#X msg 620 480 0 \, 4096 \$1;
#X msg 990 480 0 \, 4096 \$1;
#X obj 600 420 f;
#X obj 990 440 f;
#X obj 660 790 *~ 1;
#X obj 760 790 *~ 1;
#X obj 700 860 dac~;
#X floatatom 840 760 5 0 0 0 - - -, f 5;
#X obj 330 350 print A;
#X obj 720 360 print B;
#X obj 660 819 lop~ 1000;
#X obj 760 820 lop~ 1000;
#X connect 0 0 1 0;
#X connect 1 0 4 0;
#X connect 4 0 5 0;
#X connect 5 0 9 0;
#X connect 6 0 22 0;
#X connect 7 0 23 0;
#X connect 8 0 6 0;
#X connect 8 0 7 0;
#X connect 10 0 12 0;
#X connect 11 0 13 0;
#X connect 12 0 8 1;
#X connect 12 0 26 1;
#X connect 13 0 10 0;
#X connect 13 1 14 0;
#X connect 14 0 15 0;
#X connect 15 0 12 1;
#X connect 16 0 8 0;
#X connect 16 0 31 0;
#X connect 16 0 37 0;
#X connect 16 0 43 0;
#X connect 17 0 16 0;
#X connect 20 0 23 1;
#X connect 20 0 22 1;
#X connect 21 0 20 0;
#X connect 22 0 39 0;
#X connect 23 0 40 0;
#X connect 24 0 29 0;
#X connect 25 0 30 0;
#X connect 26 0 24 0;
#X connect 26 0 25 0;
#X connect 27 0 30 1;
#X connect 27 0 29 1;
#X connect 28 0 27 0;
#X connect 29 0 39 0;
#X connect 30 0 40 0;
#X connect 31 0 26 0;
#X connect 31 0 38 0;
#X connect 31 0 44 0;
#X connect 32 0 33 0;
#X connect 32 0 16 1;
#X connect 32 0 37 1;
#X connect 32 0 38 1;
#X connect 33 0 31 1;
#X connect 34 0 11 0;
#X connect 35 0 21 0;
#X connect 36 0 28 0;
#X connect 37 0 35 0;
#X connect 38 0 36 0;
#X connect 39 0 45 0;
#X connect 40 0 46 0;
#X connect 42 0 45 1;
#X connect 42 0 46 1;
#X connect 45 0 41 0;
#X connect 46 0 41 1;
